<svg width="935" height="310" viewBox="0 0 935 310" fill="none" xmlns="http://www.w3.org/2000/svg">
<g filter="url(#filter0_d_9_2)">
<path fill-rule="evenodd" clip-rule="evenodd" d="M239.991 122.684C239.759 163.552 218.751 199.5 186.993 220.499V156H186.945V92.5478L239.991 122.684ZM186.626 84.3159L239.758 114.501C237.203 73.7504 213.964 38.6097 180.418 19.4557L128.9 50.9879L186.626 84.3159ZM122 47.0041L173.206 15.6626C157.716 8.18889 140.344 4 121.993 4C100.911 4 81.1213 9.52833 63.9929 19.2143V80.4863L121.993 47L122 47.0041ZM57.041 90H56.9929L56.9929 23.5009C25.396 44.3939 4.44029 80.0831 4 120.694L57.041 151.413V90ZM61.3926 162.012L115.022 192.975L62.1117 223.699C29.1865 204.27 6.51924 169.308 4.19097 128.894L61.3882 162.02L61.3926 162.012ZM125.822 194.789L125.826 194.796L69.3083 227.615C85.1662 235.541 103.059 240 121.993 240C143.074 240 162.865 234.472 179.993 224.786V163.514L125.822 194.789Z" fill="url(#paint0_linear_9_2)"/>
</g>
<path d="M122.02 70L167.936 96V148L122.02 174L76.1033 148V96L122.02 70Z" fill="#FCFCFC"/>
<path d="M286.642 194V48.5455H382.949V73.9006H317.395V108.56H376.557V133.915H317.395V194H286.642ZM403.634 194V48.5455H434.387V168.645H496.745V194H403.634ZM645.112 121.273C645.112 137.134 642.105 150.629 636.092 161.756C630.126 172.883 621.982 181.382 611.66 187.253C601.385 193.077 589.832 195.989 577.001 195.989C564.075 195.989 552.474 193.053 542.2 187.182C531.925 181.311 523.805 172.812 517.839 161.685C511.873 150.558 508.89 137.087 508.89 121.273C508.89 105.411 511.873 91.9167 517.839 80.7898C523.805 69.6629 531.925 61.1875 542.2 55.3636C552.474 49.4924 564.075 46.5568 577.001 46.5568C589.832 46.5568 601.385 49.4924 611.66 55.3636C621.982 61.1875 630.126 69.6629 636.092 80.7898C642.105 91.9167 645.112 105.411 645.112 121.273ZM613.933 121.273C613.933 110.998 612.394 102.333 609.316 95.2784C606.286 88.2235 602.001 82.8731 596.461 79.2273C590.921 75.5814 584.434 73.7585 577.001 73.7585C569.567 73.7585 563.08 75.5814 557.54 79.2273C552.001 82.8731 547.692 88.2235 544.614 95.2784C541.584 102.333 540.069 110.998 540.069 121.273C540.069 131.547 541.584 140.212 544.614 147.267C547.692 154.322 552.001 159.672 557.54 163.318C563.08 166.964 569.567 168.787 577.001 168.787C584.434 168.787 590.921 166.964 596.461 163.318C602.001 159.672 606.286 154.322 609.316 147.267C612.394 140.212 613.933 131.547 613.933 121.273ZM667.892 194V48.5455H698.645V112.679H700.562L752.906 48.5455H789.767L735.79 113.673L790.406 194H753.616L713.773 134.199L698.645 152.665V194H667.892ZM883.517 90.3778C882.949 84.6487 880.51 80.1979 876.202 77.0256C871.893 73.8532 866.045 72.267 858.659 72.267C853.64 72.267 849.402 72.9773 845.946 74.3977C842.49 75.7708 839.838 77.6884 837.991 80.1506C836.192 82.6127 835.293 85.4062 835.293 88.5312C835.198 91.1354 835.742 93.4081 836.926 95.3494C838.157 97.2907 839.838 98.9716 841.969 100.392C844.099 101.765 846.562 102.973 849.355 104.014C852.149 105.009 855.132 105.861 858.304 106.571L871.372 109.696C877.717 111.116 883.541 113.01 888.844 115.378C894.147 117.745 898.74 120.657 902.622 124.114C906.505 127.57 909.511 131.642 911.642 136.33C913.82 141.017 914.933 146.391 914.98 152.452C914.933 161.353 912.66 169.071 908.162 175.605C903.711 182.092 897.272 187.134 888.844 190.733C880.463 194.284 870.354 196.06 858.517 196.06C846.775 196.06 836.547 194.26 827.835 190.662C819.17 187.063 812.4 181.737 807.523 174.682C802.693 167.58 800.16 158.796 799.923 148.332H829.682C830.013 153.209 831.41 157.281 833.872 160.548C836.382 163.768 839.72 166.206 843.886 167.864C848.1 169.473 852.859 170.278 858.162 170.278C863.37 170.278 867.892 169.521 871.727 168.006C875.61 166.491 878.616 164.384 880.747 161.685C882.878 158.986 883.943 155.884 883.943 152.381C883.943 149.114 882.973 146.367 881.031 144.142C879.137 141.917 876.344 140.023 872.651 138.46C869.005 136.898 864.53 135.477 859.227 134.199L843.389 130.222C831.126 127.239 821.443 122.575 814.341 116.23C807.239 109.885 803.711 101.339 803.759 90.5909C803.711 81.7841 806.055 74.09 810.79 67.5085C815.572 60.9271 822.13 55.7898 830.463 52.0966C838.796 48.4034 848.266 46.5568 858.872 46.5568C869.668 46.5568 879.09 48.4034 887.139 52.0966C895.236 55.7898 901.533 60.9271 906.031 67.5085C910.529 74.09 912.849 81.7131 912.991 90.3778H883.517Z" fill="white"/>
<defs>
<filter id="filter0_d_9_2" x="0" y="4" width="243.991" height="244" filterUnits="userSpaceOnUse" color-interpolation-filters="sRGB">
<feFlood flood-opacity="0" result="BackgroundImageFix"/>
<feColorMatrix in="SourceAlpha" type="matrix" values="0 0 0 0 0 0 0 0 0 0 0 0 0 0 0 0 0 0 127 0" result="hardAlpha"/>
<feOffset dy="4"/>
<feGaussianBlur stdDeviation="2"/>
<feComposite in2="hardAlpha" operator="out"/>
<feColorMatrix type="matrix" values="0 0 0 0 0 0 0 0 0 0 0 0 0 0 0 0 0 0 0.25 0"/>
<feBlend mode="normal" in2="BackgroundImageFix" result="effect1_dropShadow_9_2"/>
<feBlend mode="normal" in="SourceGraphic" in2="effect1_dropShadow_9_2" result="shape"/>
</filter>
<linearGradient id="paint0_linear_9_2" x1="42.4929" y1="28" x2="201.493" y2="225.5" gradientUnits="userSpaceOnUse">
<stop stop-color="#91C4E9"/>
<stop offset="1" stop-color="#08548B"/>
</linearGradient>
</defs>
</svg>
